<svg width="75" height="81" viewBox="0 0 75 81" fill="none" xmlns="http://www.w3.org/2000/svg">
<path d="M1 80.5097L14.3608 45.4798M58.0359 80.5097L44.2822 45.4798M44.2822 45.4798L30.5284 10.4498H27.7216L14.3608 45.4798M44.2822 45.4798L31.3144 79.8361H27.7216L14.3608 45.4798" stroke="white" stroke-width="1.5"/>
<path d="M52.0723 17.1858L50.0225 13.2019M56.2006 13.0575L52.1882 11.0361M52.1882 11.0361L48.1759 9.0148L47.9727 9.21797L50.0225 13.2019M52.1882 11.0361L54.2084 14.9336L53.9484 15.1936L50.0225 13.2019" stroke="white" stroke-width="0.5"/>
<path d="M56.124 12.9844L59.4663 9.95475M61.6024 16.0031L62.3403 11.5384M62.3403 11.5384L63.0782 7.07368L62.8086 6.92512L59.4663 9.95475M62.3403 11.5384L59.0754 14.5169L58.7303 14.3268L59.4663 9.95475" stroke="white" stroke-width="0.5"/>
<path d="M61.6421 15.8725L65.6531 17.8845M60.7557 21.741L65.1881 20.9631M65.1881 20.9631L69.6204 20.1852L69.6641 19.8964L65.6531 17.8845M65.1881 20.9631L61.2521 19.0039L61.308 18.6342L65.6531 17.8845" stroke="white" stroke-width="0.5"/>
<path d="M60.7464 21.7231L60.0855 26.1673M54.82 22.7485L56.9765 26.7053M56.9765 26.7053L59.133 30.662L59.4246 30.6115L60.0855 26.1673M56.9765 26.7053L57.6105 22.349L57.9838 22.2844L60.0855 26.1673" stroke="white" stroke-width="0.5"/>
<path d="M54.7343 22.7642L50.2525 23.2774M52.0428 17.1178L48.8405 20.3153M48.8405 20.3153L45.6383 23.5127L45.7707 23.7906L50.2525 23.2774M48.8405 20.3153L53.2297 19.7985L53.3993 20.1542L50.2525 23.2774" stroke="white" stroke-width="0.5"/>
</svg>
